<?xml version="1.0" encoding="UTF-8"?>
<svg version="1.1" xmlns="http://www.w3.org/2000/svg" width="180" height="180">
<path d="M0 0 C-2.47833692 18.97884327 -2.47833692 18.97884327 -9.0625 25.5 C-14.73335011 29.83581196 -22.09611185 30.12461892 -29 30 C-28 27 -28 27 -25.0625 25.5 C-24.051875 25.005 -23.04125 24.51 -22 24 C-21.34 23.01 -20.68 22.02 -20 21 C-19.34 21 -18.68 21 -18 21 C-18 20.01 -18 19.02 -18 18 C-18.76183594 18.38091797 -18.76183594 18.38091797 -19.5390625 18.76953125 C-20.96927169 19.48463584 -22.40030488 20.19809411 -23.83203125 20.91015625 C-25.67033548 21.83427675 -27.49326032 22.78889224 -29.3125 23.75 C-32 25 -32 25 -35 25 C-34.29328093 22.83473306 -33.57708313 20.67337151 -32.84765625 18.515625 C-32.31935843 16.9477734 -31.80399156 15.37543074 -31.30859375 13.796875 C-31.08300781 13.12140625 -30.85742188 12.4459375 -30.625 11.75 C-30.43164062 11.14671875 -30.23828125 10.5434375 -30.0390625 9.921875 C-27.75039465 5.68869988 -25.10299561 3.36558565 -20.546875 1.85546875 C-18.66742188 1.52482422 -18.66742188 1.52482422 -16.75 1.1875 C-16.0912085 1.06914795 -15.43241699 0.9507959 -14.75366211 0.82885742 C-9.76434428 -0.01441618 -5.04128429 -0.26533075 0 0 Z M-22 6 C-20.515 6.99 -20.515 6.99 -19 8 C-18.34 7.34 -17.68 6.68 -17 6 C-18.65 6 -20.3 6 -22 6 Z M-24 7 C-24 7.99 -24 8.98 -24 10 C-23.34 9.01 -22.68 8.02 -22 7 C-22.66 7 -23.32 7 -24 7 Z M-17 10 C-17 10.33 -17 10.66 -17 11 C-15.35 11 -13.7 11 -12 11 C-11.67 11.66 -11.34 12.32 -11 13 C-11 12.01 -11 11.02 -11 10 C-12.98 10 -14.96 10 -17 10 Z M-20 11 C-20 11.99 -20 12.98 -20 14 C-17.83333333 13.16666667 -17.83333333 13.16666667 -17 11 C-17.99 11 -18.98 11 -20 11 Z M-8 11 C-7 13 -7 13 -7 13 Z M-23 14 C-23.33 14.66 -23.66 15.32 -24 16 C-22.68 15.34 -21.36 14.68 -20 14 C-20.99 14 -21.98 14 -23 14 Z M-27 15 C-26.67 15.99 -26.34 16.98 -26 18 C-25.34 17.34 -24.68 16.68 -24 16 C-24.99 15.67 -25.98 15.34 -27 15 Z M-13 14 C-13 14.66 -13 15.32 -13 16 C-14.32 16.33 -15.64 16.66 -17 17 C-15.35 17 -13.7 17 -12 17 C-12.33 16.01 -12.66 15.02 -13 14 Z M-10 17 C-9 19 -9 19 -9 19 Z " fill="#FFFFFF" transform="translate(154,40)"/>
<path d="M0 0 C8.83735758 -0.29457859 18.56960347 -0.32364573 26 5 C30.58563757 10.3809785 35 18.88584524 35 26 C32.03562707 25.01187569 30.25149347 24.27664282 28.125 21.9375 C25.24879932 19.31508173 22.80059657 19.29235358 19 19 C18.67 19.66 18.34 20.32 18 21 C18.99 21.33 19.98 21.66 21 22 C21 22.66 21 23.32 21 24 C23.64 25.32 26.28 26.64 29 28 C29 28.66 29 29.32 29 30 C13.98401066 29.28495289 13.98401066 29.28495289 7.484375 23.92578125 C4.38041386 20.27033016 3.38448281 17.00958188 2.1875 12.4375 C1.86362305 11.30538086 1.86362305 11.30538086 1.53320312 10.15039062 C0.53120467 6.54001526 0 3.80927795 0 0 Z M10 5 C10 5.33 10 5.66 10 6 C12.64 6 15.28 6 18 6 C18 7.32 18 8.64 18 10 C15.69 10 13.38 10 11 10 C11.33 10.99 11.66 11.98 12 13 C12 12.34 12 11.68 12 11 C13.98 11 15.96 11 18 11 C18 11.99 18 12.98 18 14 C18.66 13.67 19.32 13.34 20 13 C19.67 11.02 19.34 9.04 19 7 C19.99 6.67 20.98 6.34 22 6 C19.11788698 5.03929566 17.30149956 4.89418117 14.3125 4.9375 C13.50425781 4.94652344 12.69601563 4.95554687 11.86328125 4.96484375 C11.24839844 4.97644531 10.63351563 4.98804688 10 5 Z M22 7 C22.99 7.99 23.98 8.98 25 10 C24.67 9.01 24.34 8.02 24 7 C23.34 7 22.68 7 22 7 Z M25 11 C26 13 26 13 26 13 Z M20 14 C21.98 14.99 21.98 14.99 24 16 C23.67 15.34 23.34 14.68 23 14 C22.01 14 21.02 14 20 14 Z M16 14 C16 14.66 16 15.32 16 16 C14.68 15.67 13.36 15.34 12 15 C12 15.66 12 16.32 12 17 C13.65 17 15.3 17 17 17 C16.67 16.01 16.34 15.02 16 14 Z M8 16 C9 18 9 18 9 18 Z M9 18 C10 20 10 20 10 20 Z " fill="#FFFFFF" transform="translate(26,40)"/>
<path d="M0 0 C1.58017387 2.01692059 2.8083159 3.85619926 4.0625 6.0625 C4.73410156 7.18785156 5.40570313 8.31320313 6.09765625 9.47265625 C9.30193227 15.23213907 12.59283837 21.24288096 11 28 C9.63381919 30.5005988 8.11720715 32.73942781 6.41015625 35.01953125 C4.82243793 37.04492391 4.82243793 37.04492391 4 40 C3.01 40 2.02 40 1 40 C1.875 33.125 1.875 33.125 3 32 C2.34 31.67 1.68 31.34 1 31 C1.185625 30.4225 1.37125 29.845 1.5625 29.25 C2.04023546 26.79307475 1.75729364 25.35602466 1 23 C-0.98 23.33 -2.96 23.66 -5 24 C-5.75427297 28.97906259 -5.75427297 28.97906259 -6 34 C-6 36.33333333 -6 38.66666667 -6 41 C-9 40 -9 40 -10.4375 37.3125 C-10.953125 36.219375 -11.46875 35.12625 -12 34 C-12.721875 33.05125 -13.44375 32.1025 -14.1875 31.125 C-16.46103603 27.20511029 -16.96096775 24.35347512 -16 20 C-8.12938005 0 -8.12938005 0 0 0 Z M-10 17 C-12.29013653 20.4352048 -12.17842973 21.985331 -12 26 C-11.67 26 -11.34 26 -11 26 C-10.34 23.03 -9.68 20.06 -9 17 C-9.33 17 -9.66 17 -10 17 Z M5 18 C5 18.66 5 19.32 5 20 C3.68 19.67 2.36 19.34 1 19 C1.33 20.32 1.66 21.64 2 23 C3.65 22.67 5.3 22.34 7 22 C6.34 20.68 5.68 19.36 5 18 Z M-9 20 C-8.01 20.99 -7.02 21.98 -6 23 C-6 22.01 -6 21.02 -6 20 C-6.99 20 -7.98 20 -9 20 Z " fill="#FFFFFF" transform="translate(92,12)"/>
<path d="M0 0 C1 1 1 1 1.125 3.4375 C1 6 1 6 0 8 C0.97582031 8.48210937 1.95164063 8.96421875 2.95703125 9.4609375 C4.24224049 10.09885158 5.52739382 10.73687831 6.8125 11.375 C7.45509766 11.69210938 8.09769531 12.00921875 8.75976562 12.3359375 C11.63194461 13.76458611 14.3267821 15.21785473 17 17 C17 18.32 17 19.64 17 21 C14.94141904 22.59743471 13.05766163 23.85104637 10.8125 25.125 C10.23435547 25.47175781 9.65621094 25.81851563 9.06054688 26.17578125 C4.22972365 29.02514817 0.05225911 31.28901896 -5.625 31.25 C-6.38039062 31.25515625 -7.13578125 31.2603125 -7.9140625 31.265625 C-10 31 -10 31 -13 29 C-13.6875 25.875 -13.6875 25.875 -14 23 C-12.35 22.67 -10.7 22.34 -9 22 C-10.32 21.67 -11.64 21.34 -13 21 C-12.67 19.68 -12.34 18.36 -12 17 C-11.01 17 -10.02 17 -9 17 C-14.10671831 14.75802611 -16.78872375 15.26290792 -22 17 C-23.32 17 -24.64 17 -26 17 C-25 14 -25 14 -22.55859375 12.61328125 C-16.41017145 10.05079736 -11.67288625 8.35837632 -5 9 C-4.91113816 5.80097361 -5.08941469 3.07322544 -6 0 C-3.49749232 -1.25125384 -2.59701335 -0.83774624 0 0 Z M-6 13 C-6 13.99 -6 14.98 -6 16 C-4.68 15.67 -3.36 15.34 -2 15 C-3.32 14.34 -4.64 13.68 -6 13 Z M-7 16 C-7.33 16.66 -7.66 17.32 -8 18 C-7.34 18 -6.68 18 -6 18 C-6.33 17.34 -6.66 16.68 -7 16 Z M0 18 C0.33 18.99 0.66 19.98 1 21 C1 20.01 1 19.02 1 18 C0.67 18 0.34 18 0 18 Z M7 18 C8 20 8 20 8 20 Z M-7 20 C-7.66 20.66 -8.32 21.32 -9 22 C-7.68 23.32 -6.36 24.64 -5 26 C-4.34 25.01 -3.68 24.02 -3 23 C-4.32 22.01 -5.64 21.02 -7 20 Z " fill="#FFFFFF" transform="translate(163,78)"/>
<path d="M0 0 C4.75 0.75 4.75 0.75 7 3 C7.1875 6.0625 7.1875 6.0625 7 9 C6.67 9.33 6.34 9.66 6 10 C7.17755859 10.60134766 7.17755859 10.60134766 8.37890625 11.21484375 C16.20230926 15.44812072 22.92080961 19.80006124 25.86328125 28.57421875 C26.4375 31.0625 26.4375 31.0625 27 35 C23.34811918 36.07174763 20.73567172 35.76411467 17 35 C16.67 35.99 16.34 36.98 16 38 C15.34 38 14.68 38 14 38 C13.505 40.475 13.505 40.475 13 43 C8.37793501 40.56057681 5.05401123 38.07866556 3.30859375 32.98046875 C1.74831967 26.40113119 1.94293553 19.929131 2.22265625 13.22265625 C1.97482353 9.63560366 1.56312432 9.23764822 -1 7 C-0.6875 3.3125 -0.6875 3.3125 0 0 Z M6 15 C6 19.62 6 24.24 6 29 C6.99 29 7.98 29 9 29 C9 26.03 9 23.06 9 20 C11.62901288 21.52206009 13.84365964 22.84365964 16 25 C16 24.01 16 23.02 16 22 C16.66 21.67 17.32 21.34 18 21 C16.37829621 19.99466333 14.75252763 18.99588093 13.125 18 C12.22007813 17.443125 11.31515625 16.88625 10.3828125 16.3125 C8.16142533 14.83917671 8.16142533 14.83917671 6 15 Z M9 30 C10 32 10 32 10 32 Z " fill="#FFFFFF" transform="translate(56,24)"/>
<path d="M0 0 C10.5528965 3.40557463 15.97673652 9.31170883 21.140625 19.1796875 C23.06749213 23.8835102 23.95782068 28.91739187 24 34 C23.67 34.66 23.34 35.32 23 36 C14.37411747 33.30441171 7.1324888 26.22885747 2 19 C0.11645472 14.59298702 -0.22229174 10.89229523 -0.125 6.125 C-0.10695313 4.97257812 -0.08890625 3.82015625 -0.0703125 2.6328125 C-0.04710938 1.76398438 -0.02390625 0.89515625 0 0 Z " fill="#FFFFFF" transform="translate(65,88)"/>
<path d="M0 0 C0.77764977 15.38018433 0.77764977 15.38018433 -4 22 C-4.40089844 22.59039062 -4.80179688 23.18078125 -5.21484375 23.7890625 C-9.40188788 29.29896985 -15.09936179 32.54571179 -21 36 C-21.495 34.515 -21.495 34.515 -22 33 C-22.66 32.67 -23.32 32.34 -24 32 C-21.66503096 18.74802659 -17.03505464 10.00281354 -6 2 C-1.55910543 0 -1.55910543 0 0 0 Z M-18 26 C-17 28 -17 28 -17 28 Z " fill="#FFFFFF" transform="translate(115,88)"/>
<path d="M0 0 C0 0.66 0 1.32 0 2 C0.66 1.67 1.32 1.34 2 1 C9.09436748 0.05408434 15.73980403 2.77917454 22 6 C22.495 7.485 22.495 7.485 23 9 C22.2265625 8.9278125 21.453125 8.855625 20.65625 8.78125 C14.74326187 8.25435007 8.93570969 7.88585174 3 8 C3 7.01 3 6.02 3 5 C0.36 6.98 -2.28 8.96 -5 11 C-3.37660195 12.70884005 -1.70680947 14.37446717 0 16 C2.08896425 16 4.05372935 15.76726073 6.125 15.5 C7.40375 15.335 8.6825 15.17 10 15 C10 16.98 10 18.96 10 21 C5.08972042 23.71632487 1.9929153 24.49537183 -3.45703125 23.00390625 C-9.48159349 20.62554604 -16.91710721 17.20777141 -21 12 C-21 11.01 -21 10.02 -21 9 C-15.14752118 4.47816526 -7.47488903 0 0 0 Z M-12 10 C-11 12 -11 12 -11 12 Z " fill="#FFFFFF" transform="translate(21,86)"/>
<path d="M0 0 C4.93018794 1.88224095 6.39352648 5.46847746 8.7265625 9.96875 C10.49135937 14.16961618 11.62251013 18.42924069 11 23 C9.62109375 24.78125 9.62109375 24.78125 8 26 C7.34 26 6.68 26 6 26 C5.81824219 26.63808594 5.63648437 27.27617188 5.44921875 27.93359375 C5.07216797 29.17302734 5.07216797 29.17302734 4.6875 30.4375 C4.44386719 31.26121094 4.20023438 32.08492187 3.94921875 32.93359375 C3.47935547 33.95646484 3.47935547 33.95646484 3 35 C1.515 35.495 1.515 35.495 0 36 C-0.67154933 34.71086513 -1.33708859 33.41859796 -2 32.125 C-2.37125 31.40570313 -2.7425 30.68640625 -3.125 29.9453125 C-4 28 -4 28 -4 26 C-4.99 25.67 -5.98 25.34 -7 25 C-9.31102169 21.53346747 -9.22266091 19.67408015 -8.68359375 15.62109375 C-7.2051348 9.95225972 -4.15317981 4.15317981 0 0 Z M-4 20 C-3 22 -3 22 -3 22 Z M5 20 C6 22 6 22 6 22 Z " fill="#FFFFFF" transform="translate(89,72)"/>
<path d="M0 0 C6.75 0.75 6.75 0.75 9 3 C9.66 2.34 10.32 1.68 11 1 C14.22588537 5.37121022 15.97031855 9.38521333 17.25 14.6875 C17.42273438 15.35072266 17.59546875 16.01394531 17.7734375 16.69726562 C18.49617166 19.54518236 19 22.05040991 19 25 C-3.36198547 23.8501816 -3.36198547 23.8501816 -11 16 C-10.67 14.35 -10.34 12.7 -10 11 C-9.01 11.33 -8.02 11.66 -7 12 C-7 11.34 -7 10.68 -7 10 C-6.34 10 -5.68 10 -5 10 C-4.525625 9.505 -4.05125 9.01 -3.5625 8.5 C-2 7 -2 7 1 7 C0.67 4.69 0.34 2.38 0 0 Z M5 5 C6 7 6 7 6 7 Z M10 5 C10 5.99 10 6.98 10 8 C8.68 7.67 7.36 7.34 6 7 C6 7.66 6 8.32 6 9 C5.01 9 4.02 9 3 9 C3 8.34 3 7.68 3 7 C2.01 7.495 2.01 7.495 1 8 C1.66 9.32 2.32 10.64 3 12 C3 11.34 3 10.68 3 10 C4.32 10 5.64 10 7 10 C7 11.65 7 13.3 7 15 C7.33 15 7.66 15 8 15 C8 13.02 8 11.04 8 9 C8.99 9 9.98 9 11 9 C10.67 7.68 10.34 6.36 10 5 Z M-1 12 C-0.67 13.98 -0.34 15.96 0 18 C-0.99 18.495 -0.99 18.495 -2 19 C-0.68 18.67 0.64 18.34 2 18 C1.67 16.02 1.34 14.04 1 12 C0.34 12 -0.32 12 -1 12 Z " fill="#FFFFFF" transform="translate(136,124)"/>
<path d="M0 0 C2.73186504 8.51699099 2.43595381 16.89531972 -1.04296875 25.20703125 C-2.66478784 28.24545967 -4.59343574 30.53172897 -7 33 C-7.66 33 -8.32 33 -9 33 C-9.33 31.02 -9.66 29.04 -10 27 C-10.99 27.33 -11.98 27.66 -13 28 C-13.33 27.01 -13.66 26.02 -14 25 C-15.98 25 -17.96 25 -20 25 C-20.33 25.66 -20.66 26.32 -21 27 C-21.66 26.67 -22.32 26.34 -23 26 C-23.4656271 20.29606808 -22.54748984 16.45100602 -19 12 C-14.27831541 7.06495835 -7.33172377 0 0 0 Z M-8.5625 7.5 C-9.38878906 7.9640625 -10.21507813 8.428125 -11.06640625 8.90625 C-11.70449219 9.2671875 -12.34257813 9.628125 -13 10 C-12.34 11.32 -11.68 12.64 -11 14 C-10.566875 13.525625 -10.13375 13.05125 -9.6875 12.5625 C-8 11 -8 11 -5 10 C-5.33 13.63 -5.66 17.26 -6 21 C-5.01 20.67 -4.02 20.34 -3 20 C-1.92140138 12.45952096 -1.92140138 12.45952096 -3 5 C-4.9967878 5 -6.87577422 6.54973196 -8.5625 7.5 Z M-15 16 C-14 18 -14 18 -14 18 Z M-17 20 C-16 23 -16 23 -16 23 Z " fill="#FFFFFF" transform="translate(120,34)"/>
<path d="M0 0 C0.99 0.33 1.98 0.66 3 1 C2.67 1.598125 2.34 2.19625 2 2.8125 C0.79212012 5.05386471 0.79212012 5.05386471 1 8 C0.34 8 -0.32 8 -1 8 C-1 8.66 -1 9.32 -1 10 C-2.32 10 -3.64 10 -5 10 C-3.68 10.33 -2.36 10.66 -1 11 C-1 11.66 -1 12.32 -1 13 C-0.01 13.33 0.98 13.66 2 14 C2 15.65 2 17.3 2 19 C2.33 19 2.66 19 3 19 C3 17.02 3 15.04 3 13 C9.28571429 10.57142857 9.28571429 10.57142857 13 12 C13.375 14.1875 13.375 14.1875 13 17 C8.42768799 21.70294949 4.34673664 23.1028497 -2 24.3125 C-2.78117187 24.48072266 -3.56234375 24.64894531 -4.3671875 24.82226562 C-8.64104523 25.70365884 -12.61378217 26.18978827 -17 26 C-16.40532938 23.28926794 -15.79964449 20.58179163 -15.1875 17.875 C-15.02185547 17.11445313 -14.85621094 16.35390625 -14.68554688 15.5703125 C-12.11801998 4.33132684 -12.11801998 4.33132684 -7.8125 1.625 C-7.214375 1.41875 -6.61625 1.2125 -6 1 C-5.67 1.66 -5.34 2.32 -5 3 C-4.236875 2.484375 -3.47375 1.96875 -2.6875 1.4375 C-1.800625 0.963125 -0.91375 0.48875 0 0 Z M-9 7 C-8.67 7.99 -8.34 8.98 -8 10 C-8 9.01 -8 8.02 -8 7 C-8.33 7 -8.66 7 -9 7 Z M-6 13 C-5 16 -5 16 -5 16 Z " fill="#FFFFFF" transform="translate(42,123)"/>
<path d="M0 0 C6.12424677 0.32232878 11.241312 3.29788817 16 7 C18.29988673 10.21354036 19.47898821 13.1897668 20.4375 17 C21.60906866 21.19037258 23.20490044 23.64588053 26 27 C26.75 30.3125 26.75 30.3125 27 33 C18.87315037 31.95137424 13.68087741 28.92960234 8 23 C3.67466519 16.84749512 0 7.61333206 0 0 Z M20 26 C20.33 26.66 20.66 27.32 21 28 C21.66 27.67 22.32 27.34 23 27 C22.01 26.67 21.02 26.34 20 26 Z " fill="#FFFFFF" transform="translate(45,88)"/>
<path d="M0 0 C-1.59722331 11.05446662 -3.73917584 20.93697793 -13 28 C-17.48559334 30.84579229 -21.66750063 32.46675006 -27 33 C-26 30 -26 30 -24 28 C-23.63259939 26.67564896 -23.30448545 25.34021547 -23 24 C-22.37832468 22.34489038 -21.7308472 20.69932011 -21.0625 19.0625 C-20.72347656 18.22847656 -20.38445312 17.39445312 -20.03515625 16.53515625 C-19.69355469 15.69855469 -19.35195312 14.86195312 -19 14 C-18.53980469 12.70255859 -18.53980469 12.70255859 -18.0703125 11.37890625 C-15.83947788 6.42059135 -11.10857733 3.31187557 -6.25 1.125 C-3 0 -3 0 0 0 Z M-21 25 C-20.67 25.66 -20.34 26.32 -20 27 C-19.67 26.34 -19.34 25.68 -19 25 C-19.66 25 -20.32 25 -21 25 Z " fill="#FFFFFF" transform="translate(135,88)"/>
<path d="M0 0 C0.495 1.485 0.495 1.485 1 3 C-3.09714481 10.14847188 -9.28888782 15.9730803 -17 19 C-17.99 18.67 -18.98 18.34 -20 18 C-19.67 16.35 -19.34 14.7 -19 13 C-21.64 13.33 -24.28 13.66 -27 14 C-28.4606285 11.35261084 -29 10.10551666 -29 7 C-29.66 7 -30.32 7 -31 7 C-31.33 5.35 -31.66 3.7 -32 2 C-22.03050544 -2.02277851 -10.35464778 -4.23702218 0 0 Z M-16 2 C-16 2.66 -16 3.32 -16 4 C-14.35 4 -12.7 4 -11 4 C-11.66 5.65 -12.32 7.3 -13 9 C-11.68 9.33 -10.36 9.66 -9 10 C-7.35 7.69 -5.7 5.38 -4 3 C-6.88211302 2.03929566 -8.69850044 1.89418117 -11.6875 1.9375 C-12.49574219 1.94652344 -13.30398437 1.95554687 -14.13671875 1.96484375 C-14.75160156 1.97644531 -15.36648437 1.98804687 -16 2 Z M-24 4 C-24 4.33 -24 4.66 -24 5 C-22.35 5 -20.7 5 -19 5 C-19 4.67 -19 4.34 -19 4 C-20.65 4 -22.3 4 -24 4 Z " fill="#FFFFFF" transform="translate(157,72)"/>
<path d="M0 0 C0 0.99 0 1.98 0 3 C-0.66 3 -1.32 3 -2 3 C-3.2236068 5.0745356 -3.2236068 5.0745356 -3 8 C-3.99 8.495 -3.99 8.495 -5 9 C-5 9.99 -5 10.98 -5 12 C-7.97 11.67 -10.94 11.34 -14 11 C-14 11.66 -14 12.32 -14 13 C-13.34 13.33 -12.68 13.66 -12 14 C-12 14.99 -12 15.98 -12 17 C-20.86668311 15.63110857 -26.55347872 9.90785739 -31.8828125 3.05078125 C-32.25148438 2.37402344 -32.62015625 1.69726562 -33 1 C-32.67 0.01 -32.34 -0.98 -32 -2 C-20.94504162 -4.68066125 -10.47925027 -4.7259364 0 0 Z M-28 2 C-25.36 4.97 -22.72 7.94 -20 11 C-19.67 10.34 -19.34 9.68 -19 9 C-18.34 8.67 -17.68 8.34 -17 8 C-18.37485532 6.45833358 -18.37485532 6.45833358 -20 5 C-20.66 5 -21.32 5 -22 5 C-22 4.01 -22 3.02 -22 2 C-20.35 2 -18.7 2 -17 2 C-17 1.34 -17 0.68 -17 0 C-18.8871875 -0.061875 -18.8871875 -0.061875 -20.8125 -0.125 C-21.52019531 -0.14820312 -22.22789063 -0.17140625 -22.95703125 -0.1953125 C-25.31359719 -0.13254462 -25.31359719 -0.13254462 -28 2 Z " fill="#FFFFFF" transform="translate(55,74)"/>
<path d="M0 0 C3.86455954 0.84903202 7.53808048 2.21579749 11.25 3.5625 C11.8996875 3.79646484 12.549375 4.03042969 13.21875 4.27148438 C14.81312378 4.84592787 16.40664767 5.4227293 18 6 C18.33 8.97 18.66 11.94 19 15 C17.68 15 16.36 15 15 15 C16.98 15.66 18.96 16.32 21 17 C20.67 13.37 20.34 9.74 20 6 C21.32 6.33 22.64 6.66 24 7 C25.24377393 9.48754786 25.13306235 11.22655301 25.125 14 C25.12886719 15.3303125 25.12886719 15.3303125 25.1328125 16.6875 C25 19 25 19 24 21 C24.99 21.33 25.98 21.66 27 22 C27 23.98 27 25.96 27 28 C25.25 28.75 25.25 28.75 23 29 C20.75 27.3125 20.75 27.3125 19 25 C19 23.68 19 22.36 19 21 C18.3709375 20.72027344 17.741875 20.44054687 17.09375 20.15234375 C10.99470664 17.2957135 5.40338851 14.20818537 1 9 C-0.00770592 5.72495576 0 3.39406631 0 0 Z " fill="#FFFFFF" transform="translate(97,131)"/>
<path d="M0 0 C0.734375 2.68359375 0.734375 2.68359375 1 6 C-3.51207727 13.89613523 -10.66442071 18.03970081 -19 21 C-18.96390625 21.78632813 -18.9278125 22.57265625 -18.890625 23.3828125 C-19 26 -19 26 -20.75 27.875 C-23 29 -23 29 -25.25 28.6875 C-25.8275 28.460625 -26.405 28.23375 -27 28 C-26.67 25.69 -26.34 23.38 -26 21 C-25.34 21 -24.68 21 -24 21 C-24.01160156 20.08476562 -24.02320313 19.16953125 -24.03515625 18.2265625 C-24.04869141 16.44378906 -24.04869141 16.44378906 -24.0625 14.625 C-24.07410156 13.44164062 -24.08570313 12.25828125 -24.09765625 11.0390625 C-24 8 -24 8 -23 6 C-22.01 6 -21.02 6 -20 6 C-20.33 9.63 -20.66 13.26 -21 17 C-19.35 16.34 -17.7 15.68 -16 15 C-16.99 15 -17.98 15 -19 15 C-18.91369933 9.73565931 -18.91369933 9.73565931 -18 7 C-14.9375 5.25 -14.9375 5.25 -13.04296875 4.65234375 C-10.78330786 3.93080767 -8.84035727 2.92916035 -6.75 1.8125 C-4.09596307 0.39524428 -3.10810285 0 0 0 Z " fill="#FFFFFF" transform="translate(83,131)"/>
<path d="M0 0 C3.79065275 1.53475209 5.65913805 3.97426863 8.40234375 6.97265625 C9.06234375 6.31265625 9.72234375 5.65265625 10.40234375 4.97265625 C12.90234375 5.16015625 12.90234375 5.16015625 15.40234375 5.97265625 C17.40234375 8.97265625 17.40234375 8.97265625 17.27734375 11.53515625 C16.40234375 13.97265625 16.40234375 13.97265625 14.33984375 15.28515625 C13.70046875 15.51203125 13.06109375 15.73890625 12.40234375 15.97265625 C12.40234375 14.65265625 12.40234375 13.33265625 12.40234375 11.97265625 C11.74234375 11.97265625 11.08234375 11.97265625 10.40234375 11.97265625 C10.11359375 12.94203125 9.82484375 13.91140625 9.52734375 14.91015625 C8.40234375 17.97265625 8.40234375 17.97265625 6.40234375 18.97265625 C5.63921875 18.18890625 4.87609375 17.40515625 4.08984375 16.59765625 C1.4934257 13.90007908 1.4934257 13.90007908 -1.59765625 11.97265625 C-3.24765625 14.28265625 -4.89765625 16.59265625 -6.59765625 18.97265625 C-8.53515625 18.41015625 -8.53515625 18.41015625 -10.59765625 16.97265625 C-12.30847715 13.06220849 -12.30847715 13.06220849 -11.59765625 9.97265625 C-5.04346924 -0.05308915 -5.04346924 -0.05308915 0 0 Z M9.40234375 8.97265625 C10.40234375 10.97265625 10.40234375 10.97265625 10.40234375 10.97265625 Z " fill="#FFFFFF" transform="translate(90.59765625,57.02734375)"/>
<path d="M0 0 C0 1.98 0 3.96 0 6 C-6.87969443 9.89154432 -13.13602348 11.20448248 -21 10 C-24.85554576 8.64446141 -28.42338899 6.9713604 -32 5 C-32 4.01 -32 3.02 -32 2 C-21.22805031 -3.33831135 -11.47433867 -2.84319896 0 0 Z " fill="#FFFFFF" transform="translate(78,124)"/>
<path d="M0 0 C0 0.66 0 1.32 0 2 C-8.46478586 6.58441014 -15.38185064 8.68821178 -24.87890625 6.265625 C-29.85995026 4.53678469 -29.85995026 4.53678469 -32 3 C-32.7734375 0.35546875 -32.7734375 0.35546875 -33 -2 C-21.09342289 -6.15345713 -10.98647026 -6.80577803 0 0 Z " fill="#FFFFFF" transform="translate(134,127)"/>
<path d="M0 0 C10.68430493 -0.76681614 10.68430493 -0.76681614 13.91015625 1.11328125 C15.25 2.5 15.25 2.5 17 5 C16.67 5.66 16.34 6.32 16 7 C15.34 7 14.68 7 14 7 C14 7.99 14 8.98 14 10 C13.01 10.495 13.01 10.495 12 11 C12 12.65 12 14.3 12 16 C9 17 9 17 6.0625 15.5625 C5.051875 15.046875 4.04125 14.53125 3 14 C1.68 14 0.36 14 -1 14 C-1.33 13.67 -1.66 13.34 -2 13 C-1.93579251 11.37146465 -1.7987936 9.74550788 -1.625 8.125 C-1.53476562 7.24070312 -1.44453125 6.35640625 -1.3515625 5.4453125 C-1 3 -1 3 0 0 Z " fill="#FFFFFF" transform="translate(58,69)"/>
<path d="M0 0 C0.99 0 1.98 0 3 0 C8.3871112 16.25381618 8.3871112 16.25381618 6 23 C3.9375 25.5625 3.9375 25.5625 2 27 C-0.58504106 26.01946718 -1.97484325 25.02862665 -3.8125 22.9375 C-6.90152857 15.2962188 -2.89149401 7.19511301 0 0 Z " fill="#FFFFFF" transform="translate(89,129)"/>
<path d="M0 0 C0.98484375 0.01804687 1.9696875 0.03609375 2.984375 0.0546875 C4.10585937 0.08949219 4.10585937 0.08949219 5.25 0.125 C5.63991022 2.05955454 6.01145349 3.99781828 6.375 5.9375 C6.58382812 7.01644531 6.79265625 8.09539062 7.0078125 9.20703125 C7.25 12.125 7.25 12.125 5.25 15.125 C2.375 15.75 2.375 15.75 -0.75 16.125 C-2.08737094 16.44174575 -3.42288808 16.76770064 -4.75 17.125 C-6.75 14.125 -6.75 14.125 -6.75 11.125 C-7.41 10.795 -8.07 10.465 -8.75 10.125 C-8.75 9.135 -8.75 8.145 -8.75 7.125 C-9.41 6.795 -10.07 6.465 -10.75 6.125 C-10.5 4.25 -10.5 4.25 -9.75 2.125 C-6.51286374 -0.03309084 -3.82462761 -0.09106256 0 0 Z M2.25 6.125 C2.25 8.435 2.25 10.745 2.25 13.125 C2.58 13.125 2.91 13.125 3.25 13.125 C3.25 10.815 3.25 8.505 3.25 6.125 C2.92 6.125 2.59 6.125 2.25 6.125 Z " fill="#FFFFFF" transform="translate(116.75,68.875)"/>
<path d="M0 0 C0.99 0.66 1.98 1.32 3 2 C3.9861147 9.02606721 1.77776277 13.1888805 -2 19 C-2.40347656 19.62777344 -2.80695313 20.25554687 -3.22265625 20.90234375 C-4.12818761 22.2817374 -5.06076664 23.64332959 -6 25 C-8.95012764 24.668598 -9.87526641 24.14446992 -11.8515625 21.85546875 C-12.43679687 20.97503906 -13.02203125 20.09460938 -13.625 19.1875 C-14.21539062 18.31480469 -14.80578125 17.44210938 -15.4140625 16.54296875 C-18.74573488 11.20080441 -19.20873292 8.26198771 -19 2 C-17.68 1.67 -16.36 1.34 -15 1 C-15.12375 2.010625 -15.2475 3.02125 -15.375 4.0625 C-14.87943349 9.26594839 -12.62814154 11.44744474 -9 15 C-8.401875 14.690625 -7.80375 14.38125 -7.1875 14.0625 C-5 13 -5 13 -2 12 C-1.90912109 10.95199219 -1.90912109 10.95199219 -1.81640625 9.8828125 C-1.73261719 8.97273437 -1.64882812 8.06265625 -1.5625 7.125 C-1.48128906 6.22007812 -1.40007812 5.31515625 -1.31640625 4.3828125 C-1 2 -1 2 0 0 Z " fill="#FFFFFF" transform="translate(98,143)"/>
<path d="M0 0 C5.19672085 -0.31180325 8.76264447 -0.17801664 13 3 C14.03896571 5.28740031 14.73627004 7.50890035 15.359375 9.94140625 C15.88598957 12.19602948 15.88598957 12.19602948 18 14 C18 14.99 18 15.98 18 17 C12.57850493 16.55742897 8.27024883 15.51978431 4 12 C1.52764044 8.93863713 0.08860678 6.04112966 -0.25 2.0625 C-0.1675 1.381875 -0.085 0.70125 0 0 Z " fill="#FFFFFF" transform="translate(33,97)"/>
<path d="M0 0 C-2.05455187 4.69018912 -5.3434055 7.47883493 -9 11 C-3.555 11.495 -3.555 11.495 2 12 C2.33 12.99 2.66 13.98 3 15 C-3.81402575 16.05268874 -9.36801431 15.93833398 -16 14 C-16.66 15.32 -17.32 16.64 -18 18 C-20.64 17.67 -23.28 17.34 -26 17 C-24.84826645 14.53199953 -23.95216435 12.95216435 -22 11 C-20.948125 11.12375 -19.89625 11.2475 -18.8125 11.375 C-14.41055042 10.94202135 -14.03899436 10.41345992 -11.3125 7.1875 C-10.77238281 6.47980469 -10.23226563 5.77210937 -9.67578125 5.04296875 C-6.56461642 1.25010347 -5.01697731 0 0 0 Z " fill="#FFFFFF" transform="translate(35,108)"/>
<path d="M0 0 C1.21236328 0.01353516 1.21236328 0.01353516 2.44921875 0.02734375 C3.37154297 0.04474609 3.37154297 0.04474609 4.3125 0.0625 C2.9076513 6.51602372 0.70297728 10.58983921 -4.48046875 14.75390625 C-7.925256 16.79639073 -10.71457226 16.99155486 -14.6875 17.0625 C-14.6875 16.0725 -14.6875 15.0825 -14.6875 14.0625 C-13.6975 13.4025 -12.7075 12.7425 -11.6875 12.0625 C-11.3326046 10.06621336 -11.00171071 8.06559329 -10.6875 6.0625 C-9.3125 3.25 -9.3125 3.25 -7.6875 1.0625 C-4.80538698 0.10179566 -2.98899956 -0.04331883 0 0 Z " fill="#FFFFFF" transform="translate(143.6875,96.9375)"/>
<path d="M0 0 C4.10056743 0.52241086 6.1752561 1.63500616 9.1875 4.4375 C9.86167969 5.05496094 10.53585938 5.67242187 11.23046875 6.30859375 C12.50177392 7.52377066 13.75644225 8.75644225 15 10 C15 11.32 15 12.64 15 14 C12.34909169 15.32545416 10.0132021 15.3746374 7.0625 15.625 C5.47115234 15.76808594 5.47115234 15.76808594 3.84765625 15.9140625 C1 16 1 16 -2 15 C-2 14.34 -2 13.68 -2 13 C3.445 12.01 3.445 12.01 9 11 C8.01 10.01 7.02 9.02 6 8 C6 7.34 6 6.68 6 6 C5.38125 5.7525 4.7625 5.505 4.125 5.25 C1.64931313 3.79371361 1.04874998 2.62187494 0 0 Z " fill="#FFFFFF" transform="translate(145,108)"/>
<path d="M0 0 C4.67834293 1.25555528 9.50261351 1.8750891 14.28515625 2.61328125 C14.61515625 3.60328125 14.94515625 4.59328125 15.28515625 5.61328125 C10.94077301 7.58211876 7.19705339 9.13759653 2.46484375 7.83984375 C-1.92167354 5.72971153 -4.86669131 4.28388388 -6.71484375 -0.38671875 C-4.04733568 -1.72047279 -2.72943352 -0.85186142 0 0 Z " fill="#FFFFFF" transform="translate(42.71484375,114.38671875)"/>
<path d="M0 0 C1.65 1.65 3.3 3.3 5 5 C4.52269162 6.4589426 4.04308958 7.91713496 3.5625 9.375 C3.29566406 10.18710938 3.02882813 10.99921875 2.75390625 11.8359375 C2 14 2 14 1 16 C-1.375 16.125 -1.375 16.125 -4 16 C-4.66 15.34 -5.32 14.68 -6 14 C-5.86589799 8.36771547 -3.08717122 4.48835963 0 0 Z " fill="#FFFFFF" transform="translate(77,74)"/>
<path d="M0 0 C-1.22654349 3.81591307 -3.5893598 5.40607565 -7.06640625 7.2421875 C-11.21234966 8.86706229 -14.8178146 8.40244609 -18.9375 7 C-19.618125 6.67 -20.29875 6.34 -21 6 C-21 5.01 -21 4.02 -21 3 C-20.08476563 2.86722656 -19.16953125 2.73445313 -18.2265625 2.59765625 C-17.03804688 2.42105469 -15.84953125 2.24445313 -14.625 2.0625 C-13.44164062 1.88847656 -12.25828125 1.71445313 -11.0390625 1.53515625 C-2.06610169 -0.04491525 -2.06610169 -0.04491525 0 0 Z " fill="#FFFFFF" transform="translate(144,114)"/>
<path d="M0 0 C3.71134205 3.1994328 5.42930118 6.3705719 7 11 C6.6875 13.4375 6.6875 13.4375 6 15 C4.1875 15.625 4.1875 15.625 2 16 C-1.81592825 13.45604783 -2.52329522 11.28244387 -4 7 C-3.84451846 4.20133231 -3.29936727 3.33529135 -1.4375 1.25 C-0.963125 0.8375 -0.48875 0.425 0 0 Z M2 12 C3 15 3 15 3 15 Z " fill="#FFFFFF" transform="translate(102,74)"/>
<path d="M0 0 C1.98 0.495 1.98 0.495 4 1 C4 5.62 4 10.24 4 15 C2.35 15.33 0.7 15.66 -1 16 C-1.02725341 14.2709226 -1.04650987 12.54171824 -1.0625 10.8125 C-1.07410156 9.84957031 -1.08570312 8.88664062 -1.09765625 7.89453125 C-1.00486622 5.14423487 -0.62111685 2.67520409 0 0 Z " fill="#FFFFFF" transform="translate(88,37)"/>
<path d="M0 0 C1.32 0 2.64 0 4 0 C4 0.66 4 1.32 4 2 C5.98 1.67 7.96 1.34 10 1 C10.33 2.65 10.66 4.3 11 6 C9.33388095 6.042721 7.66617115 6.04063832 6 6 C5.67 5.67 5.34 5.34 5 5 C4.67 5.66 4.34 6.32 4 7 C1.83125748 6.49396008 0.00032373 6.00016187 -2 5 C-1.125 1.125 -1.125 1.125 0 0 Z " fill="#FFFFFF" transform="translate(19,94)"/>
<path d="M0 0 C1.125 3.75 1.125 3.75 0 6 C-3.32820054 6.22692276 -5.41801336 6.32162419 -8.375 4.6875 C-10 3 -10 3 -10 0 C-6.42355152 -1.2380014 -3.66305234 -0.74926071 0 0 Z " fill="#FFFFFF" transform="translate(21,69)"/>
<path d="M0 0 C0.86625 0.37125 0.86625 0.37125 1.75 0.75 C1.75 3.06 1.75 5.37 1.75 7.75 C-0.60438733 9.17944945 -1.73032433 9.83661261 -4.5 9.375 C-5.0775 9.16875 -5.655 8.9625 -6.25 8.75 C-6.62010337 5.4190697 -6.52461204 4.12268777 -4.5 1.375 C-2.25 -0.25 -2.25 -0.25 0 0 Z " fill="#FFFFFF" transform="translate(122.25,24.25)"/>
<path d="M0 0 C-0.99 3.3 -1.98 6.6 -3 10 C-4.32 9.34 -5.64 8.68 -7 8 C-7.75 4.375 -7.75 4.375 -8 1 C-5 -1 -5 -1 0 0 Z " fill="#FFFFFF" transform="translate(80,63)"/>
<path d="M0 0 C-0.375 2.4375 -0.375 2.4375 -1 5 C-3.70879335 6.35439668 -6.00933268 6.06501451 -9 6 C-9.33 4.35 -9.66 2.7 -10 1 C-6.1496895 -1.56687367 -4.41430237 -0.83288724 0 0 Z " fill="#FFFFFF" transform="translate(168,69)"/>
<path d="M0 0 C2.625 0.375 2.625 0.375 5 1 C5 2.32 5 3.64 5 5 C5.2981424 6.34164079 5.62243192 7.67851173 6 9 C3.69 8.67 1.38 8.34 -1 8 C-1.625 5.125 -1.625 5.125 -2 2 C-1.34 1.34 -0.68 0.68 0 0 Z " fill="#FFFFFF" transform="translate(23,61)"/>
<path d="M0 0 C3.32820054 -0.22692276 5.41801336 -0.32162419 8.375 1.3125 C10 3 10 3 10 6 C3.9453125 6.9765625 3.9453125 6.9765625 2 7 C0 5 0 5 -0.125 2.375 C-0.08375 1.59125 -0.0425 0.8075 0 0 Z " fill="#FFFFFF" transform="translate(161,119)"/>
<path d="M0 0 C2.625 0.375 2.625 0.375 5 1 C6.125 5.75 6.125 5.75 5 8 C1.9375 8.625 1.9375 8.625 -1 9 C-1.625 5.625 -1.625 5.625 -2 2 C-1.34 1.34 -0.68 0.68 0 0 Z " fill="#FFFFFF" transform="translate(153,61)"/>
<path d="M0 0 C1.8871875 0.061875 1.8871875 0.061875 3.8125 0.125 C3.8125 1.115 3.8125 2.105 3.8125 3.125 C-2.8125 7.125 -2.8125 7.125 -6.1875 7.125 C-6.5175 5.475 -6.8475 3.825 -7.1875 2.125 C-4.09861478 0.06574319 -3.47814073 -0.1140374 0 0 Z " fill="#FFFFFF" transform="translate(124.1875,84.875)"/>
<path d="M0 0 C1.258125 -0.020625 2.51625 -0.04125 3.8125 -0.0625 C4.52019531 -0.07410156 5.22789063 -0.08570312 5.95703125 -0.09765625 C8 0 8 0 11 1 C11 2.98 11 4.96 11 7 C6.87248551 6.39301257 3.6678852 4.96189209 0 3 C0 2.01 0 1.02 0 0 Z " fill="#FFFFFF" transform="translate(52,85)"/>
<path d="M0 0 C2.5 0.125 2.5 0.125 5 1 C6.3125 3.0625 6.3125 3.0625 7 5 C6.01 5 5.02 5 4 5 C3.67 5.99 3.34 6.98 3 8 C1.35 7.67 -0.3 7.34 -2 7 C-2.125 4.625 -2.125 4.625 -2 2 C-1.34 1.34 -0.68 0.68 0 0 Z " fill="#FFFFFF" transform="translate(18,77)"/>
<path d="M0 0 C2.2109885 0.42793326 3.98119242 0.99059621 6 2 C6 3.65 6 5.3 6 7 C4.02 7.99 4.02 7.99 2 9 C2 8.01 2 7.02 2 6 C0.68 5.67 -0.64 5.34 -2 5 C-1.125 1.125 -1.125 1.125 0 0 Z " fill="#FFFFFF" transform="translate(108,27)"/>
<path d="M0 0 C1.2065625 0.0309375 1.2065625 0.0309375 2.4375 0.0625 C2.4375 2.3725 2.4375 4.6825 2.4375 7.0625 C0.625 7.6875 0.625 7.6875 -1.5625 8.0625 C-2.5525 7.4025 -3.5425 6.7425 -4.5625 6.0625 C-3.48963568 0.08511307 -3.48963568 0.08511307 0 0 Z " fill="#FFFFFF" transform="translate(23.5625,123.9375)"/>
<path d="M0 0 C1.67542976 0.28604898 3.34385343 0.61781233 5 1 C5.33 2.65 5.66 4.3 6 6 C0.25 7.125 0.25 7.125 -2 6 C-1.125 1.125 -1.125 1.125 0 0 Z " fill="#FFFFFF" transform="translate(125,34)"/>
<path d="M0 0 C2.375 -0.125 2.375 -0.125 5 0 C5.66 0.66 6.32 1.32 7 2 C6.625 4.625 6.625 4.625 6 7 C2.25 8.125 2.25 8.125 0 7 C0 4.69 0 2.38 0 0 Z " fill="#FFFFFF" transform="translate(154,124)"/>
<path d="M0 0 C1.1446875 0.3403125 1.1446875 0.3403125 2.3125 0.6875 C1.9825 2.3375 1.6525 3.9875 1.3125 5.6875 C0.3225 5.6875 -0.6675 5.6875 -1.6875 5.6875 C-1.6875 6.3475 -1.6875 7.0075 -1.6875 7.6875 C-2.6775 7.6875 -3.6675 7.6875 -4.6875 7.6875 C-5.375 5.375 -5.375 5.375 -5.6875 2.6875 C-4.0011022 -0.12316299 -3.27764429 -0.38112143 0 0 Z " fill="#FFFFFF" transform="translate(70.6875,27.3125)"/>
<path d="M0 0 C2.97 0.495 2.97 0.495 6 1 C5.42655063 3.86724686 5.1385485 4.8614515 3 7 C0.875 6.625 0.875 6.625 -1 6 C-1.33 4.68 -1.66 3.36 -2 2 C-1.34 2 -0.68 2 0 2 C0 1.34 0 0.68 0 0 Z " fill="#FFFFFF" transform="translate(126,146)"/>
<path d="M0 0 C0.33 1.65 0.66 3.3 1 5 C-1.875 5.625 -1.875 5.625 -5 6 C-5.66 5.34 -6.32 4.68 -7 4 C-7 2.68 -7 1.36 -7 0 C-4.3333581 -1.33332095 -2.83319697 -0.67102033 0 0 Z " fill="#FFFFFF" transform="translate(56,35)"/>
<path d="M0 0 C-0.33 1.65 -0.66 3.3 -1 5 C-2.98 5 -4.96 5 -7 5 C-7.33 3.68 -7.66 2.36 -8 1 C-4.93251126 -0.86240388 -3.40254489 -1.2151946 0 0 Z " fill="#FFFFFF" transform="translate(113,152)"/>
<path d="M0 0 C1.65 0 3.3 0 5 0 C5.33 1.98 5.66 3.96 6 6 C3.625 6.625 3.625 6.625 1 7 C0.34 6.34 -0.32 5.68 -1 5 C-0.625 2.375 -0.625 2.375 0 0 Z " fill="#FFFFFF" transform="translate(50,146)"/>
<path d="M0 0 C1.65 0.33 3.3 0.66 5 1 C5.042721 2.66611905 5.04063832 4.33382885 5 6 C4 7 4 7 1.4375 7.0625 C0.2309375 7.0315625 0.2309375 7.0315625 -1 7 C-1.66 5.68 -2.32 4.36 -3 3 C-2.01 3 -1.02 3 0 3 C0 2.01 0 1.02 0 0 Z " fill="#FFFFFF" transform="translate(161,110)"/>
<path d="M0 0 C1.67542976 0.28604898 3.34385343 0.61781233 5 1 C5.33 2.98 5.66 4.96 6 7 C4.02 7 2.04 7 0 7 C-0.38133299 5.0085944 -0.71325582 3.00720923 -1 1 C-0.67 0.67 -0.34 0.34 0 0 Z " fill="#FFFFFF" transform="translate(15,110)"/>
<path d="M0 0 C1.98 0.66 3.96 1.32 6 2 C6 2.99 6 3.98 6 5 C4.02 5.33 2.04 5.66 0 6 C-0.38218767 4.34385343 -0.71395102 2.67542976 -1 1 C-0.67 0.67 -0.34 0.34 0 0 Z " fill="#FFFFFF" transform="translate(69,151)"/>
<path d="M0 0 C1.67542976 0.28604898 3.34385343 0.61781233 5 1 C5 1.99 5 2.98 5 4 C3.35 4.33 1.7 4.66 0 5 C-0.5625 3.0625 -0.5625 3.0625 -1 1 C-0.67 0.67 -0.34 0.34 0 0 Z " fill="#FFFFFF" transform="translate(43,131)"/>
<path d="M0 0 C0.99 0.99 1.98 1.98 3 3 C1.68 3.33 0.36 3.66 -1 4 C-0.67 2.68 -0.34 1.36 0 0 Z " fill="#FFFFFF" transform="translate(147,115)"/>
<path d="M0 0 C0.66 0 1.32 0 2 0 C2 0.99 2 1.98 2 3 C1.01 3.33 0.02 3.66 -1 4 C-0.67 2.68 -0.34 1.36 0 0 Z " fill="#FFFFFF" transform="translate(32,115)"/>
<path d="" fill="#FFFFFF" transform="translate(0,0)"/>
</svg>
